<svg width="16" height="16" viewBox="0 0 16 16" fill="none" xmlns="http://www.w3.org/2000/svg"><g clip-path="url(#clip0_7656_86253)"><path d="M3.27377 2.58357V6.54958H8.76902V9.06516H3.27377V13.2578H9.47055V15.8414H0V0H9.47055V2.58357H3.27377ZM14.0124 16C13.42 16 12.9289 15.8263 12.5392 15.4788C12.165 15.1161 11.9779 14.6704 11.9779 14.1416C11.9779 13.6128 12.165 13.1747 12.5392 12.8272C12.9289 12.4646 13.42 12.2833 14.0124 12.2833C14.5892 12.2833 15.0646 12.4646 15.4388 12.8272C15.8129 13.1747 16 13.6128 16 14.1416C16 14.6704 15.8129 15.1161 15.4388 15.4788C15.0646 15.8263 14.5892 16 14.0124 16Z" fill="#5BC0D8"/></g><defs><clipPath id="clip0_7656_86253"><rect width="16" height="16" fill="white"/></clipPath></defs></svg>
