<?xml version="1.0" encoding="UTF-8"?>
<svg xmlns="http://www.w3.org/2000/svg" xmlns:xlink="http://www.w3.org/1999/xlink" width="24" height="24" viewBox="0 0 24 24" version="1.1">
<g id="surface1">
<path style=" stroke:none;fill-rule:nonzero;fill:rgb(0%,0%,0%);fill-opacity:1;" d="M 7.25 9.351562 C 7.136719 10.191406 7.1875 11.089844 7.21875 11.878906 C 7.273438 13.257812 7.277344 14.632812 7.257812 16.011719 C 7.25 16.542969 7.710938 16.988281 8.234375 16.992188 C 9.464844 17 10.691406 17.003906 11.917969 17.011719 C 13.09375 17.019531 14.335938 17.140625 15.503906 16.992188 C 17.554688 16.734375 17.199219 13.566406 17.167969 12.082031 C 17.140625 10.980469 17.0625 9.859375 16.957031 8.757812 C 16.851562 7.667969 16.183594 7.585938 15.21875 7.527344 C 12.808594 7.382812 10.382812 7.328125 7.96875 7.289062 C 6.800781 7.273438 6.566406 8.773438 7.25 9.351562 Z M 15.53125 9.125 C 15.597656 9.511719 15.148438 14.972656 15.140625 15.089844 C 14.96875 15.0625 10.125 15.042969 9.226562 15.039062 C 9.230469 13.984375 9.21875 12.933594 9.175781 11.878906 C 9.148438 11.15625 9.105469 10.304688 8.929688 9.523438 C 9.9375 9.46875 10.945312 9.425781 11.953125 9.386719 C 12.574219 9.359375 14.980469 9.136719 15.53125 9.125 Z M 15.53125 9.125 "/>
<path style=" stroke:none;fill-rule:nonzero;fill:rgb(0%,0%,0%);fill-opacity:1;" d="M 4.117188 21.101562 C 8.078125 24.457031 14.375 24.367188 18.753906 21.828125 C 22.84375 19.457031 24.675781 14.464844 23.667969 9.929688 C 22.441406 4.398438 17.070312 0.722656 11.558594 0.625 C 11.214844 0.617188 10.964844 0.761719 10.804688 0.972656 C 6.308594 0.875 2.136719 4.71875 0.679688 8.734375 C -0.894531 13.0625 0.632812 18.148438 4.117188 21.101562 Z M 1.5625 10.503906 C 2.007812 8.21875 3.269531 6.210938 4.949219 4.625 C 6.585938 3.074219 8.519531 2.234375 10.605469 1.53125 C 10.566406 2.058594 10.886719 2.617188 11.558594 2.609375 C 15.742188 2.566406 19.964844 4.914062 21.667969 8.828125 C 23.242188 12.441406 22.222656 17.132812 19.167969 19.65625 C 15.792969 22.445312 9.789062 23.050781 6.054688 20.695312 C 2.746094 18.605469 0.8125 14.367188 1.5625 10.503906 Z M 1.5625 10.503906 "/>
</g>
</svg>
